REM MD5 3ac039091d702db83b3f09296e6ec60e
FILE "Rampage - World Tour (USA).bin" BINARY
  TRACK 01 MODE2/2352
    INDEX 01 00:00:00
  TRACK 02 AUDIO
    INDEX 00 25:08:32
    INDEX 01 25:10:32
  TRACK 03 AUDIO
    INDEX 00 28:01:67
    INDEX 01 28:03:67
REM LEADOUT 30:55:27
